HIERARCHY
ROOT Hips
{
	OFFSET 0.00000 0.00000 0.00000
	CHANNELS 6 Xposition Yposition Zposition Yrotation Zrotation Xrotation 
	JOINT Lumbar
	{
		OFFSET 0 0 0
		CHANNELS 3 Zrotation Xrotation Yrotation
		JOINT Neck
		{
			OFFSET 0.00 0.2701 0.00
			CHANNELS 3 Zrotation Xrotation Yrotation
			End Site
			{
				OFFSET 0.00 0.1379 0.00
			}
		}
		JOINT RightShoulder
		{
			OFFSET 0.0119 0.2289 0.1181
			CHANNELS 3 Zrotation Xrotation Yrotation
			JOINT RightElbow
			{
				OFFSET 0.00 -0.1475 0.00
				CHANNELS 2 Zrotation Yrotation
				JOINT RightWrist
				{
					OFFSET 0.00 -0.1605 0.00
					CHANNELS 2 Zrotation Xrotation
					End Site
					{
						OFFSET 0.0040 -0.1068 0.0006
					}
				}
			}
		}
		JOINT LeftShoulder
		{
			OFFSET 0.0119 0.2289 -0.1181
			CHANNELS 3 Zrotation Xrotation Yrotation
			JOINT LeftElbow
			{
				OFFSET 0.00 -0.1475 0.00
				CHANNELS 2 Zrotation Yrotation
				JOINT LeftWrist
				{
					OFFSET 0.00 -0.1605 0.00
					CHANNELS 2 Zrotation Xrotation
					End Site
					{
						OFFSET 0.0040 -0.1068 -0.0006
					}
				}
			}
		}
	}
	JOINT RightHip
	{
		OFFSET 0.0316 -0.0424 0.0458
		CHANNELS 3 Zrotation Xrotation Yrotation
		JOINT RightKnee
		{
			OFFSET 0.00 -0.2438 0.00
			CHANNELS 1 Zrotation
			JOINT RightAnkle
			{
				OFFSET 0.00 -0.2449 0.00
				CHANNELS 3 Zrotation Xrotation Yrotation
				End Site
				{
					OFFSET 0.1237 -0.0542 0.0051
				}
			}
		}
	}
	JOINT LeftHip
	{
		OFFSET 0.0316 -0.0424 -0.0458
		CHANNELS 3 Zrotation Xrotation Yrotation
		JOINT LeftKnee
		{
			OFFSET 0.00 -0.2438 0.00
			CHANNELS 1 Zrotation
			JOINT LeftAnkle
			{
				OFFSET 0.00 -0.2449 0.00
				CHANNELS 3 Zrotation Xrotation Yrotation
				End Site
				{
					OFFSET 0.1237 -0.0542 -0.0051
				}
			}
		}
	}
}
MOTION
Frames: 14
Frame Time: 0.02
0.15533 0.44707 0.01729 180.30323 0 -2.53519 -4.57631 5.1216 3.25616 -24.77905 -3.27869 -1.51265 67.72904 -39.47395 45.30277 129.49355 113.87837 -58.19478 -6.43792 45.16681 29.12569 -45.89194 85.09979 -11.58794 -32.33885 -10.3893 55.88487 -0.48648 -3.30139 -65.52757 10.71355 0.39796 3.44759 55.89223 8.34726 7.73628 -63.19234 8.59782 5.98013 6.40045
0.15527 0.44719 0.01733 180.31695 0 -2.54078 -4.53121 5.04292 3.13338 -23.99676 -3.03547 -1.33339 68.79834 -39.88992 45.61729 129.92344 116.4287 -60.01177 -6.71366 44.37234 28.68549 -45.71319 84.87204 -11.63635 -32.2638 -10.37891 55.85418 -0.49231 -3.30367 -65.49694 10.71566 0.39931 3.44473 55.8684 8.33046 7.72292 -63.16315 8.59294 5.98411 6.40445
0.15521 0.44729 0.01737 180.33927 0 -2.54674 -4.48856 4.97427 3.04156 -23.12338 -2.84321 -1.20602 69.57669 -40.15534 45.76925 130.13782 117.85423 -61.35689 -6.8828 43.51562 28.313 -45.56748 84.67178 -11.68383 -32.19146 -10.36854 55.82444 -0.49319 -3.29168 -65.46861 10.72053 0.39202 3.42775 55.846 8.31591 7.71988 -63.13368 8.58779 5.98077 6.39362
0.15515 0.4474 0.01741 180.35699 0 -2.55253 -4.44579 4.90206 2.9394 -22.28671 -2.63319 -1.05934 70.45902 -40.48083 45.97739 130.44765 119.8137 -62.87022 -7.09795 42.68367 27.91677 -45.40645 84.46357 -11.72849 -32.12955 -10.35806 55.79478 -0.49515 -3.28483 -65.43954 10.72403 0.38829 3.4162 55.82326 8.30091 7.71262 -63.10478 8.58302 5.98087 6.38979
0.15508 0.44752 0.01745 180.3776 0 -2.55845 -4.3987 4.82555 2.81994 -21.46657 -2.39936 -0.8937 71.46711 -40.83787 46.25364 130.751 121.79557 -64.50035 -7.31831 41.86319 27.48876 -45.24465 84.23552 -11.78644 -32.0212 -10.34785 55.76279 -0.5021 -3.28372 -65.409 10.72802 0.38635 3.40884 55.79913 8.28341 7.70326 -63.07391 8.57717 5.98065 6.38505
0.15503 0.44762 0.0175 180.39428 0 -2.56413 -4.36113 4.76044 2.74416 -20.59269 -2.22781 -0.77988 72.14155 -41.0946 46.35227 131.0222 123.41788 -65.80207 -7.50405 41.00663 27.14423 -45.09433 84.05521 -11.81706 -32.00693 -10.33725 55.73592 -0.49757 -3.26739 -65.38216 10.73164 0.37856 3.38954 55.77826 8.27165 7.70073 -63.04712 8.5735 5.97929 6.37861
0.15502 0.44767 0.01754 180.39772 0 -2.56919 -4.35067 4.72392 2.78515 -19.5797 -2.21337 -0.80101 71.96724 -41.11428 45.99649 131.26938 124.3239 -66.35155 -7.62522 40.04993 27.00876 -44.95214 84.00471 -11.76725 -32.27925 -10.32434 55.72307 -0.46118 -3.21064 -65.36486 10.73362 0.35654 3.33882 55.76612 8.27569 7.71517 -63.03169 8.57602 5.97654 6.37108
0.15501 0.4477 0.01759 180.39696 0 -2.57397 -4.34947 4.69863 2.8686 -18.51875 -2.26034 -0.87186 71.46627 -41.03821 45.46937 131.49193 124.88936 -66.5913 -7.71508 39.06244 26.95611 -44.82321 84.00065 -11.69095 -32.64104 -10.31128 55.71532 -0.41367 -3.13941 -65.35127 10.73511 0.32896 3.27693 55.7572 8.28537 7.73604 -63.02039 8.5807 5.97286 6.36235
0.155 0.44775 0.01763 180.39832 0 -2.57878 -4.34311 4.66848 2.93042 -17.48822 -2.281 -0.91709 71.11279 -41.00445 45.02371 131.72051 125.59344 -66.9588 -7.81687 38.09942 26.869 -44.69865 83.9723 -11.63013 -32.94371 -10.29914 55.70517 -0.3721 -3.07592 -65.3361 10.73679 0.304 3.22134 55.74676 8.29217 7.75359 -63.00719 8.58431 5.96957 6.35416
0.155 0.44779 0.01768 180.3991 0 -2.584 -4.34084 4.6376 3.00314 -16.41698 -2.29702 -0.97674 70.75242 -40.97032 44.55617 131.9632 126.33027 -67.36289 -7.92465 37.08923 26.77086 -44.53192 83.95804 -11.55465 -33.32415 -10.28344 55.69543 -0.32651 -3.00688 -65.32056 10.73872 0.27828 3.15998 55.7366 8.30039 7.77322 -62.99403 8.58831 5.96615 6.34545
0.15499 0.44783 0.01772 180.39998 0 -2.58832 -4.33222 4.61084 3.06284 -15.42169 -2.3362 -1.01765 70.33377 -40.91638 44.0968 132.17329 126.93018 -67.62412 -8.0138 36.1717 26.71442 -44.45499 83.92548 -11.50354 -33.56413 -10.27506 55.68602 -0.28684 -2.94636 -65.30662 10.73996 0.25304 3.10829 55.72662 8.30696 7.78987 -62.98181 8.59201 5.96289 6.33777
0.15496 0.44787 0.01774 180.4022 0 -2.59004 -4.30383 4.59218 3.07625 -14.63721 -2.42754 -0.99318 69.82501 -40.83037 43.69327 132.30307 127.25284 -67.56787 -8.06084 35.51087 26.75315 -44.62918 83.82773 -11.52494 -33.39227 -10.28763 55.67629 -0.26532 -2.91114 -65.29634 10.73956 0.22942 3.08499 55.71604 8.30753 7.79706 -62.97102 8.59443 5.96028 6.33298
0.15493 0.44791 0.01776 180.40463 0 -2.5909 -4.2687 4.57734 3.07494 -13.93359 -2.53912 -0.94819 69.27216 -40.72867 43.30646 132.40125 127.45132 -67.38083 -8.09041 34.9462 26.83049 -44.89183 83.71043 -11.57189 -33.07674 -10.30746 55.66671 -0.25037 -2.8854 -65.28751 10.73846 0.2067 3.07205 55.70558 8.30624 7.80091 -62.96107 8.59646 5.95791 6.3294
0.1549 0.44796 0.01778 180.40688 0 -2.5923 -4.23665 4.56105 3.08018 -13.19998 -2.63914 -0.91326 68.74674 -40.63541 42.91835 132.51276 127.70074 -67.25561 -8.12747 34.34184 26.88978 -45.10978 83.60411 -11.60813 -32.82784 -10.32352 55.65705 -0.23304 -2.85657 -65.27789 10.73758 0.1843 3.0551 55.69524 8.30584 7.80604 -62.95085 8.59861 5.95547 6.32551
